<svg width="581" height="68" viewBox="0 0 581 68" fill="none" xmlns="http://www.w3.org/2000/svg">
<path d="M8.64009 23.296C6.01609 23.296 3.91475 22.528 2.33609 20.992C0.778754 19.4347 8.74996e-05 17.1627 8.74996e-05 14.176V9.12002C8.74996e-05 6.13336 0.778754 3.87202 2.33609 2.33602C3.91475 0.778688 6.01609 2.09808e-05 8.64009 2.09808e-05C11.2428 2.09808e-05 13.2268 0.736021 14.5921 2.20802C15.9788 3.65869 16.6721 5.64269 16.6721 8.16002V8.32002H14.6241V8.09602C14.6241 6.26135 14.1334 4.76802 13.1521 3.61602C12.1921 2.44269 10.6881 1.85602 8.64009 1.85602C6.57075 1.85602 4.94942 2.48536 3.77609 3.74402C2.62409 5.00269 2.04809 6.77335 2.04809 9.05602V14.24C2.04809 16.5227 2.62409 18.2934 3.77609 19.552C4.94942 20.8107 6.57075 21.44 8.64009 21.44C10.6881 21.44 12.1921 20.864 13.1521 19.712C14.1334 18.5387 14.6241 17.0347 14.6241 15.2V14.72H16.6721V15.136C16.6721 17.6534 15.9788 19.648 14.5921 21.12C13.2268 22.5707 11.2428 23.296 8.64009 23.296ZM24.1161 23.296C23.0281 23.296 22.0361 23.1147 21.1401 22.752C20.2654 22.368 19.5721 21.8134 19.0601 21.088C18.5481 20.3627 18.2921 19.488 18.2921 18.464C18.2921 17.4187 18.5481 16.5547 19.0601 15.872C19.5721 15.1894 20.2654 14.6774 21.1401 14.336C22.0148 13.9947 22.9854 13.824 24.0521 13.824H29.7481V12.576C29.7481 11.3174 29.3854 10.336 28.6601 9.63202C27.9348 8.92802 26.8788 8.57602 25.4921 8.57602C24.1268 8.57602 23.0388 8.91736 22.2281 9.60002C21.4388 10.2614 20.9054 11.1574 20.6281 12.288L18.7721 11.744C19.0281 10.8267 19.4334 10.0054 19.9881 9.28002C20.5428 8.53336 21.2788 7.94669 22.1961 7.52002C23.1134 7.07202 24.2121 6.84802 25.4921 6.84802C27.4548 6.84802 28.9694 7.36002 30.0361 8.38402C31.1241 9.40802 31.6681 10.8374 31.6681 12.672V20.224C31.6681 20.864 31.9668 21.184 32.5641 21.184H34.0681V22.848H32.0201C31.3588 22.848 30.8361 22.656 30.4521 22.272C30.0681 21.8667 29.8761 21.3227 29.8761 20.64V20.416H29.5561C29.2788 20.8854 28.9161 21.344 28.4681 21.792C28.0414 22.24 27.4761 22.6027 26.7721 22.88C26.0681 23.1574 25.1828 23.296 24.1161 23.296ZM24.2441 21.568C25.8868 21.568 27.2094 21.0774 28.2121 20.096C29.2361 19.0934 29.7481 17.6854 29.7481 15.872V15.488H24.0841C22.9748 15.488 22.0468 15.7334 21.3001 16.224C20.5748 16.6934 20.2121 17.4294 20.2121 18.432C20.2121 19.4347 20.5854 20.2134 21.3321 20.768C22.1001 21.3014 23.0708 21.568 24.2441 21.568ZM41.8541 23.296C39.9768 23.296 38.3661 22.848 37.0221 21.952C35.6994 21.056 34.8888 19.5734 34.5901 17.504L36.4781 17.152C36.6488 18.2827 36.9901 19.1787 37.5021 19.84C38.0354 20.48 38.6754 20.9387 39.4221 21.216C40.1901 21.4934 41.0008 21.632 41.8541 21.632C43.1341 21.632 44.1581 21.376 44.9261 20.864C45.7154 20.3307 46.1101 19.6054 46.1101 18.688C46.1101 17.7494 45.7368 17.0987 44.9901 16.736C44.2648 16.3734 43.2941 16.0854 42.0781 15.872L40.6061 15.616C39.6248 15.4454 38.7394 15.1894 37.9501 14.848C37.1608 14.4854 36.5314 14.0054 36.0621 13.408C35.6141 12.8107 35.3901 12.064 35.3901 11.168C35.3901 9.82402 35.9128 8.76802 36.9581 8.00002C38.0248 7.23202 39.4328 6.84802 41.1821 6.84802C42.9528 6.84802 44.3714 7.25336 45.4381 8.06402C46.5261 8.85336 47.2088 10.0054 47.4861 11.52L45.6941 11.904C45.4808 10.6667 44.9688 9.79202 44.1581 9.28002C43.3688 8.76802 42.3768 8.51202 41.1821 8.51202C40.0088 8.51202 39.0701 8.73602 38.3661 9.18402C37.6621 9.63202 37.3101 10.2934 37.3101 11.168C37.3101 12.0214 37.6301 12.6507 38.2701 13.056C38.9101 13.44 39.7848 13.728 40.8941 13.92L42.3661 14.176C43.4328 14.3467 44.3928 14.6027 45.2461 14.944C46.0994 15.264 46.7714 15.7227 47.2621 16.32C47.7741 16.9174 48.0301 17.7067 48.0301 18.688C48.0301 20.16 47.4754 21.3014 46.3661 22.112C45.2568 22.9014 43.7528 23.296 41.8541 23.296ZM50.6643 22.848V0.448021H52.5843V10.016H52.9683C53.2243 9.50402 53.5763 9.02402 54.0243 8.57602C54.4937 8.10669 55.091 7.73335 55.8163 7.45602C56.563 7.15735 57.491 7.00802 58.6003 7.00802C59.731 7.00802 60.7657 7.24269 61.7043 7.71202C62.643 8.18135 63.3897 8.88535 63.9443 9.82402C64.5203 10.7627 64.8083 11.9467 64.8083 13.376V22.848H62.8883V13.504C62.8883 11.7974 62.4617 10.5814 61.6083 9.85602C60.755 9.10936 59.6137 8.73602 58.1843 8.73602C56.5843 8.73602 55.251 9.25869 54.1843 10.304C53.1177 11.3494 52.5843 12.9387 52.5843 15.072V22.848H50.6643ZM81.7721 23.296C80.1934 23.296 78.8068 22.9654 77.6121 22.304C76.4388 21.6214 75.5214 20.6827 74.8601 19.488C74.2201 18.272 73.9001 16.864 73.9001 15.264V14.88C73.9001 13.28 74.2201 11.8827 74.8601 10.688C75.5214 9.47202 76.4388 8.53336 77.6121 7.87202C78.8068 7.18936 80.1934 6.84802 81.7721 6.84802C83.3508 6.84802 84.7268 7.18936 85.9001 7.87202C87.0948 8.53336 88.0121 9.47202 88.6521 10.688C89.3134 11.8827 89.6441 13.28 89.6441 14.88V15.264C89.6441 16.864 89.3134 18.272 88.6521 19.488C88.0121 20.6827 87.0948 21.6214 85.9001 22.304C84.7268 22.9654 83.3508 23.296 81.7721 23.296ZM81.7721 21.568C83.6068 21.568 85.0574 20.992 86.1241 19.84C87.1908 18.6667 87.7241 17.12 87.7241 15.2V14.944C87.7241 13.024 87.1908 11.488 86.1241 10.336C85.0574 9.16269 83.6068 8.57602 81.7721 8.57602C79.9588 8.57602 78.5081 9.16269 77.4201 10.336C76.3534 11.488 75.8201 13.024 75.8201 14.944V15.2C75.8201 17.12 76.3534 18.6667 77.4201 19.84C78.5081 20.992 79.9588 21.568 81.7721 21.568ZM98.5758 23.168C97.4665 23.168 96.4318 22.9334 95.4718 22.464C94.5332 21.9947 93.7758 21.2907 93.1998 20.352C92.6452 19.392 92.3678 18.1974 92.3678 16.768V7.29602H94.2878V16.64C94.2878 18.3254 94.7145 19.552 95.5678 20.32C96.4212 21.0667 97.5625 21.44 98.9918 21.44C100.592 21.44 101.925 20.9174 102.992 19.872C104.059 18.8054 104.592 17.2054 104.592 15.072V7.29602H106.512V22.848H104.656V19.968H104.272C103.888 20.8 103.259 21.5467 102.384 22.208C101.509 22.848 100.24 23.168 98.5758 23.168ZM115.866 22.848C115.034 22.848 114.405 22.6347 113.978 22.208C113.573 21.7814 113.37 21.184 113.37 20.416V9.02402H108.378V7.29602H113.37V1.47202H115.29V7.29602H120.73V9.02402H115.29V20.16C115.29 20.8 115.61 21.12 116.25 21.12H119.898V22.848H115.866ZM131.378 29.248V27.52H140.466C141.106 27.52 141.426 27.2 141.426 26.56V20.16H141.042C140.786 20.672 140.423 21.1627 139.954 21.632C139.506 22.08 138.908 22.4534 138.162 22.752C137.436 23.0294 136.519 23.168 135.41 23.168C134.3 23.168 133.266 22.9334 132.306 22.464C131.367 21.9947 130.61 21.2907 130.034 20.352C129.479 19.4134 129.202 18.2294 129.202 16.8V7.29602H131.122V16.672C131.122 18.3574 131.548 19.5734 132.402 20.32C133.255 21.0667 134.396 21.44 135.826 21.44C137.426 21.44 138.759 20.9174 139.826 19.872C140.892 18.8267 141.426 17.2374 141.426 15.104V7.29602H143.346V26.816C143.346 27.584 143.132 28.1814 142.706 28.608C142.3 29.0347 141.682 29.248 140.85 29.248H131.378ZM154.172 23.296C152.593 23.296 151.207 22.9654 150.012 22.304C148.839 21.6214 147.921 20.6827 147.26 19.488C146.62 18.272 146.3 16.864 146.3 15.264V14.88C146.3 13.28 146.62 11.8827 147.26 10.688C147.921 9.47202 148.839 8.53336 150.012 7.87202C151.207 7.18936 152.593 6.84802 154.172 6.84802C155.751 6.84802 157.127 7.18936 158.3 7.87202C159.495 8.53336 160.412 9.47202 161.052 10.688C161.713 11.8827 162.044 13.28 162.044 14.88V15.264C162.044 16.864 161.713 18.272 161.052 19.488C160.412 20.6827 159.495 21.6214 158.3 22.304C157.127 22.9654 155.751 23.296 154.172 23.296ZM154.172 21.568C156.007 21.568 157.457 20.992 158.524 19.84C159.591 18.6667 160.124 17.12 160.124 15.2V14.944C160.124 13.024 159.591 11.488 158.524 10.336C157.457 9.16269 156.007 8.57602 154.172 8.57602C152.359 8.57602 150.908 9.16269 149.82 10.336C148.753 11.488 148.22 13.024 148.22 14.944V15.2C148.22 17.12 148.753 18.6667 149.82 19.84C150.908 20.992 152.359 21.568 154.172 21.568ZM170.976 23.168C169.867 23.168 168.832 22.9334 167.872 22.464C166.933 21.9947 166.176 21.2907 165.6 20.352C165.045 19.392 164.768 18.1974 164.768 16.768V7.29602H166.688V16.64C166.688 18.3254 167.115 19.552 167.968 20.32C168.821 21.0667 169.963 21.44 171.392 21.44C172.992 21.44 174.325 20.9174 175.392 19.872C176.459 18.8054 176.992 17.2054 176.992 15.072V7.29602H178.912V22.848H177.056V19.968H176.672C176.288 20.8 175.659 21.5467 174.784 22.208C173.909 22.848 172.64 23.168 170.976 23.168ZM182.634 22.848V7.29602H184.49V9.24802H184.874C185.173 8.54402 185.61 8.03202 186.186 7.71202C186.784 7.39202 187.605 7.23202 188.65 7.23202H190.474V9.02402H188.426C187.253 9.02402 186.314 9.35469 185.61 10.016C184.906 10.6774 184.554 11.712 184.554 13.12V22.848H182.634ZM205.961 23.296C204.446 23.296 203.091 22.976 201.897 22.336C200.723 21.6747 199.795 20.736 199.113 19.52C198.43 18.304 198.089 16.8747 198.089 15.232V14.912C198.089 13.248 198.43 11.8187 199.113 10.624C199.795 9.40802 200.723 8.48002 201.897 7.84002C203.091 7.17869 204.446 6.84802 205.961 6.84802C207.454 6.84802 208.713 7.13602 209.737 7.71202C210.782 8.26669 211.593 9.00269 212.169 9.92002C212.766 10.816 213.139 11.7654 213.289 12.768L211.401 13.152C211.294 12.32 211.027 11.5627 210.601 10.88C210.174 10.176 209.577 9.62136 208.809 9.21602C208.041 8.78936 207.091 8.57602 205.961 8.57602C204.83 8.57602 203.817 8.84269 202.921 9.37602C202.025 9.88802 201.31 10.624 200.777 11.584C200.265 12.5227 200.009 13.6427 200.009 14.944V15.2C200.009 16.5014 200.265 17.632 200.777 18.592C201.31 19.5307 202.025 20.2667 202.921 20.8C203.817 21.312 204.83 21.568 205.961 21.568C207.667 21.568 208.969 21.1307 209.865 20.256C210.761 19.36 211.316 18.272 211.529 16.992L213.417 17.376C213.225 18.3787 212.819 19.3387 212.201 20.256C211.603 21.152 210.782 21.888 209.737 22.464C208.713 23.0187 207.454 23.296 205.961 23.296ZM216.218 22.848V7.29602H218.074V9.24802H218.458C218.757 8.54402 219.194 8.03202 219.77 7.71202C220.367 7.39202 221.189 7.23202 222.234 7.23202H224.058V9.02402H222.01C220.837 9.02402 219.898 9.35469 219.194 10.016C218.49 10.6774 218.138 11.712 218.138 13.12V22.848H216.218ZM228.063 29.248V27.52H237.151C237.791 27.52 238.111 27.2 238.111 26.56V20.16H237.727C237.471 20.672 237.108 21.1627 236.639 21.632C236.191 22.08 235.593 22.4534 234.847 22.752C234.121 23.0294 233.204 23.168 232.095 23.168C230.985 23.168 229.951 22.9334 228.991 22.464C228.052 21.9947 227.295 21.2907 226.719 20.352C226.164 19.4134 225.887 18.2294 225.887 16.8V7.29602H227.807V16.672C227.807 18.3574 228.233 19.5734 229.087 20.32C229.94 21.0667 231.081 21.44 232.511 21.44C234.111 21.44 235.444 20.9174 236.511 19.872C237.577 18.8267 238.111 17.2374 238.111 15.104V7.29602H240.031V26.816C240.031 27.584 239.817 28.1814 239.391 28.608C238.985 29.0347 238.367 29.248 237.535 29.248H228.063ZM243.753 29.248V7.29602H245.609V10.144H245.993C246.441 9.29069 247.134 8.53336 248.073 7.87202C249.033 7.18936 250.366 6.84802 252.073 6.84802C253.46 6.84802 254.718 7.17869 255.849 7.84002C256.98 8.48002 257.876 9.39736 258.537 10.592C259.22 11.7867 259.561 13.216 259.561 14.88V15.264C259.561 16.9067 259.23 18.336 258.569 19.552C257.908 20.7467 257.012 21.6747 255.881 22.336C254.75 22.976 253.481 23.296 252.073 23.296C250.942 23.296 249.972 23.1467 249.161 22.848C248.372 22.528 247.721 22.1227 247.209 21.632C246.718 21.1414 246.334 20.64 246.057 20.128H245.673V29.248H243.753ZM251.625 21.568C253.396 21.568 254.825 21.0027 255.913 19.872C257.022 18.7414 257.577 17.184 257.577 15.2V14.944C257.577 12.96 257.022 11.4027 255.913 10.272C254.825 9.14136 253.396 8.57602 251.625 8.57602C249.876 8.57602 248.446 9.14136 247.337 10.272C246.228 11.4027 245.673 12.96 245.673 14.944V15.2C245.673 17.184 246.228 18.7414 247.337 19.872C248.446 21.0027 249.876 21.568 251.625 21.568ZM267.465 22.848C266.633 22.848 266.004 22.6347 265.577 22.208C265.172 21.7814 264.969 21.184 264.969 20.416V9.02402H259.977V7.29602H264.969V1.47202H266.889V7.29602H272.329V9.02402H266.889V20.16C266.889 20.8 267.209 21.12 267.849 21.12H271.497V22.848H267.465ZM281.236 23.296C279.657 23.296 278.27 22.9654 277.076 22.304C275.902 21.6214 274.985 20.6827 274.324 19.488C273.684 18.272 273.364 16.864 273.364 15.264V14.88C273.364 13.28 273.684 11.8827 274.324 10.688C274.985 9.47202 275.902 8.53336 277.076 7.87202C278.27 7.18936 279.657 6.84802 281.236 6.84802C282.814 6.84802 284.19 7.18936 285.364 7.87202C286.558 8.53336 287.476 9.47202 288.116 10.688C288.777 11.8827 289.108 13.28 289.108 14.88V15.264C289.108 16.864 288.777 18.272 288.116 19.488C287.476 20.6827 286.558 21.6214 285.364 22.304C284.19 22.9654 282.814 23.296 281.236 23.296ZM281.236 21.568C283.07 21.568 284.521 20.992 285.588 19.84C286.654 18.6667 287.188 17.12 287.188 15.2V14.944C287.188 13.024 286.654 11.488 285.588 10.336C284.521 9.16269 283.07 8.57602 281.236 8.57602C279.422 8.57602 277.972 9.16269 276.884 10.336C275.817 11.488 275.284 13.024 275.284 14.944V15.2C275.284 17.12 275.817 18.6667 276.884 19.84C277.972 20.992 279.422 21.568 281.236 21.568ZM305.106 23.296C303.719 23.296 302.46 22.976 301.33 22.336C300.199 21.6747 299.292 20.7467 298.61 19.552C297.948 18.336 297.618 16.9067 297.618 15.264V14.88C297.618 13.2374 297.948 11.8187 298.61 10.624C299.271 9.40802 300.167 8.48002 301.298 7.84002C302.45 7.17869 303.719 6.84802 305.106 6.84802C306.258 6.84802 307.228 7.00802 308.018 7.32802C308.807 7.62669 309.447 8.02136 309.938 8.51202C310.45 8.98136 310.844 9.48269 311.122 10.016H311.506V0.448021H313.426V22.848H311.57V20H311.186C310.738 20.8534 310.034 21.6214 309.074 22.304C308.135 22.9654 306.812 23.296 305.106 23.296ZM305.554 21.568C307.324 21.568 308.754 21.0027 309.842 19.872C310.951 18.7414 311.506 17.184 311.506 15.2V14.944C311.506 12.96 310.951 11.4027 309.842 10.272C308.754 9.14136 307.324 8.57602 305.554 8.57602C303.804 8.57602 302.375 9.14136 301.266 10.272C300.156 11.4027 299.602 12.96 299.602 14.944V15.2C299.602 17.184 300.156 18.7414 301.266 19.872C302.375 21.0027 303.804 21.568 305.554 21.568ZM317.153 22.848V7.29602H319.073V22.848H317.153ZM318.113 4.60802C317.644 4.60802 317.249 4.44802 316.929 4.12802C316.609 3.80802 316.449 3.41335 316.449 2.94402C316.449 2.45335 316.609 2.05869 316.929 1.76002C317.249 1.44002 317.644 1.28002 318.113 1.28002C318.604 1.28002 318.998 1.44002 319.297 1.76002C319.617 2.05869 319.777 2.45335 319.777 2.94402C319.777 3.41335 319.617 3.80802 319.297 4.12802C318.998 4.44802 318.604 4.60802 318.113 4.60802ZM322.796 22.848V7.29602H324.652V9.24802H325.036C325.334 8.54402 325.772 8.03202 326.348 7.71202C326.945 7.39202 327.766 7.23202 328.812 7.23202H330.636V9.02402H328.588C327.414 9.02402 326.476 9.35469 325.772 10.016C325.068 10.6774 324.716 11.712 324.716 13.12V22.848H322.796ZM339.294 23.296C337.694 23.296 336.296 22.9654 335.102 22.304C333.928 21.6214 333.011 20.672 332.35 19.456C331.688 18.24 331.358 16.8427 331.358 15.264V14.88C331.358 13.28 331.688 11.8827 332.35 10.688C333.011 9.47202 333.918 8.53336 335.07 7.87202C336.243 7.18936 337.576 6.84802 339.07 6.84802C340.52 6.84802 341.8 7.15736 342.91 7.77602C344.04 8.37336 344.926 9.24802 345.566 10.4C346.206 11.5307 346.526 12.8854 346.526 14.464V15.488H333.278C333.342 17.4294 333.928 18.9334 335.038 20C336.168 21.0454 337.587 21.568 339.294 21.568C340.744 21.568 341.864 21.2374 342.654 20.576C343.464 19.9147 344.083 19.104 344.51 18.144L346.238 18.912C345.918 19.616 345.47 20.3094 344.894 20.992C344.339 21.6534 343.614 22.208 342.718 22.656C341.822 23.0827 340.68 23.296 339.294 23.296ZM333.31 13.824H344.574C344.488 12.1387 343.944 10.848 342.942 9.95202C341.939 9.03469 340.648 8.57602 339.07 8.57602C337.512 8.57602 336.222 9.03469 335.198 9.95202C334.174 10.848 333.544 12.1387 333.31 13.824ZM356.435 23.296C354.92 23.296 353.565 22.976 352.371 22.336C351.197 21.6747 350.269 20.736 349.587 19.52C348.904 18.304 348.563 16.8747 348.563 15.232V14.912C348.563 13.248 348.904 11.8187 349.587 10.624C350.269 9.40802 351.197 8.48002 352.371 7.84002C353.565 7.17869 354.92 6.84802 356.435 6.84802C357.928 6.84802 359.187 7.13602 360.211 7.71202C361.256 8.26669 362.067 9.00269 362.643 9.92002C363.24 10.816 363.613 11.7654 363.763 12.768L361.875 13.152C361.768 12.32 361.501 11.5627 361.075 10.88C360.648 10.176 360.051 9.62136 359.283 9.21602C358.515 8.78936 357.565 8.57602 356.435 8.57602C355.304 8.57602 354.291 8.84269 353.395 9.37602C352.499 9.88802 351.784 10.624 351.251 11.584C350.739 12.5227 350.483 13.6427 350.483 14.944V15.2C350.483 16.5014 350.739 17.632 351.251 18.592C351.784 19.5307 352.499 20.2667 353.395 20.8C354.291 21.312 355.304 21.568 356.435 21.568C358.141 21.568 359.443 21.1307 360.339 20.256C361.235 19.36 361.789 18.272 362.003 16.992L363.891 17.376C363.699 18.3787 363.293 19.3387 362.675 20.256C362.077 21.152 361.256 21.888 360.211 22.464C359.187 23.0187 357.928 23.296 356.435 23.296ZM371.636 22.848C370.804 22.848 370.175 22.6347 369.748 22.208C369.343 21.7814 369.14 21.184 369.14 20.416V9.02402H364.148V7.29602H369.14V1.47202H371.06V7.29602H376.5V9.02402H371.06V20.16C371.06 20.8 371.38 21.12 372.02 21.12H375.668V22.848H371.636ZM378.866 22.848V0.448021H380.786V22.848H378.866ZM386.46 29.248V27.52H395.548C396.188 27.52 396.508 27.2 396.508 26.56V20.16H396.124C395.868 20.672 395.505 21.1627 395.036 21.632C394.588 22.08 393.991 22.4534 393.244 22.752C392.519 23.0294 391.601 23.168 390.492 23.168C389.383 23.168 388.348 22.9334 387.388 22.464C386.449 21.9947 385.692 21.2907 385.116 20.352C384.561 19.4134 384.284 18.2294 384.284 16.8V7.29602H386.204V16.672C386.204 18.3574 386.631 19.5734 387.484 20.32C388.337 21.0667 389.479 21.44 390.908 21.44C392.508 21.44 393.841 20.9174 394.908 19.872C395.975 18.8267 396.508 17.2374 396.508 15.104V7.29602H398.428V26.816C398.428 27.584 398.215 28.1814 397.788 28.608C397.383 29.0347 396.764 29.248 395.932 29.248H386.46ZM414.113 22.848C413.281 22.848 412.651 22.6347 412.225 22.208C411.819 21.7814 411.617 21.184 411.617 20.416V9.02402H406.625V7.29602H411.617V1.47202H413.537V7.29602H418.977V9.02402H413.537V20.16C413.537 20.8 413.857 21.12 414.497 21.12H418.145V22.848H414.113ZM427.883 23.296C426.305 23.296 424.918 22.9654 423.723 22.304C422.55 21.6214 421.633 20.6827 420.971 19.488C420.331 18.272 420.011 16.864 420.011 15.264V14.88C420.011 13.28 420.331 11.8827 420.971 10.688C421.633 9.47202 422.55 8.53336 423.723 7.87202C424.918 7.18936 426.305 6.84802 427.883 6.84802C429.462 6.84802 430.838 7.18936 432.011 7.87202C433.206 8.53336 434.123 9.47202 434.763 10.688C435.425 11.8827 435.755 13.28 435.755 14.88V15.264C435.755 16.864 435.425 18.272 434.763 19.488C434.123 20.6827 433.206 21.6214 432.011 22.304C430.838 22.9654 429.462 23.296 427.883 23.296ZM427.883 21.568C429.718 21.568 431.169 20.992 432.235 19.84C433.302 18.6667 433.835 17.12 433.835 15.2V14.944C433.835 13.024 433.302 11.488 432.235 10.336C431.169 9.16269 429.718 8.57602 427.883 8.57602C426.07 8.57602 424.619 9.16269 423.531 10.336C422.465 11.488 421.931 13.024 421.931 14.944V15.2C421.931 17.12 422.465 18.6667 423.531 19.84C424.619 20.992 426.07 21.568 427.883 21.568ZM446.985 29.248V27.52H456.073C456.713 27.52 457.033 27.2 457.033 26.56V20.16H456.649C456.393 20.672 456.03 21.1627 455.561 21.632C455.113 22.08 454.516 22.4534 453.769 22.752C453.044 23.0294 452.126 23.168 451.017 23.168C449.908 23.168 448.873 22.9334 447.913 22.464C446.974 21.9947 446.217 21.2907 445.641 20.352C445.086 19.4134 444.809 18.2294 444.809 16.8V7.29602H446.729V16.672C446.729 18.3574 447.156 19.5734 448.009 20.32C448.862 21.0667 450.004 21.44 451.433 21.44C453.033 21.44 454.366 20.9174 455.433 19.872C456.5 18.8267 457.033 17.2374 457.033 15.104V7.29602H458.953V26.816C458.953 27.584 458.74 28.1814 458.313 28.608C457.908 29.0347 457.289 29.248 456.457 29.248H446.985ZM469.78 23.296C468.201 23.296 466.814 22.9654 465.62 22.304C464.446 21.6214 463.529 20.6827 462.868 19.488C462.228 18.272 461.908 16.864 461.908 15.264V14.88C461.908 13.28 462.228 11.8827 462.868 10.688C463.529 9.47202 464.446 8.53336 465.62 7.87202C466.814 7.18936 468.201 6.84802 469.78 6.84802C471.358 6.84802 472.734 7.18936 473.908 7.87202C475.102 8.53336 476.02 9.47202 476.66 10.688C477.321 11.8827 477.652 13.28 477.652 14.88V15.264C477.652 16.864 477.321 18.272 476.66 19.488C476.02 20.6827 475.102 21.6214 473.908 22.304C472.734 22.9654 471.358 23.296 469.78 23.296ZM469.78 21.568C471.614 21.568 473.065 20.992 474.132 19.84C475.198 18.6667 475.732 17.12 475.732 15.2V14.944C475.732 13.024 475.198 11.488 474.132 10.336C473.065 9.16269 471.614 8.57602 469.78 8.57602C467.966 8.57602 466.516 9.16269 465.428 10.336C464.361 11.488 463.828 13.024 463.828 14.944V15.2C463.828 17.12 464.361 18.6667 465.428 19.84C466.516 20.992 467.966 21.568 469.78 21.568ZM486.583 23.168C485.474 23.168 484.439 22.9334 483.479 22.464C482.541 21.9947 481.783 21.2907 481.207 20.352C480.653 19.392 480.375 18.1974 480.375 16.768V7.29602H482.295V16.64C482.295 18.3254 482.722 19.552 483.575 20.32C484.429 21.0667 485.57 21.44 486.999 21.44C488.599 21.44 489.933 20.9174 490.999 19.872C492.066 18.8054 492.599 17.2054 492.599 15.072V7.29602H494.519V22.848H492.663V19.968H492.279C491.895 20.8 491.266 21.5467 490.391 22.208C489.517 22.848 488.247 23.168 486.583 23.168ZM498.242 22.848V7.29602H500.098V9.24802H500.482C500.781 8.54402 501.218 8.03202 501.794 7.71202C502.391 7.39202 503.213 7.23202 504.258 7.23202H506.082V9.02402H504.034C502.861 9.02402 501.922 9.35469 501.218 10.016C500.514 10.6774 500.162 11.712 500.162 13.12V22.848H498.242ZM522.784 23.296C521.078 23.296 519.744 22.9654 518.784 22.304C517.846 21.6214 517.152 20.8534 516.704 20H516.32V22.848H514.464V0.448021H516.384V10.016H516.768C517.046 9.48269 517.43 8.98136 517.92 8.51202C518.432 8.02136 519.083 7.62669 519.872 7.32802C520.683 7.00802 521.654 6.84802 522.784 6.84802C524.192 6.84802 525.462 7.17869 526.592 7.84002C527.723 8.48002 528.619 9.40802 529.28 10.624C529.942 11.8187 530.272 13.2374 530.272 14.88V15.264C530.272 16.9067 529.931 18.336 529.248 19.552C528.587 20.7467 527.691 21.6747 526.56 22.336C525.43 22.976 524.171 23.296 522.784 23.296ZM522.336 21.568C524.107 21.568 525.536 21.0027 526.624 19.872C527.734 18.7414 528.288 17.184 528.288 15.2V14.944C528.288 12.96 527.734 11.4027 526.624 10.272C525.536 9.14136 524.107 8.57602 522.336 8.57602C520.587 8.57602 519.158 9.14136 518.048 10.272C516.939 11.4027 516.384 12.96 516.384 14.944V15.2C516.384 17.184 516.939 18.7414 518.048 19.872C519.158 21.0027 520.587 21.568 522.336 21.568ZM538 23.296C536.912 23.296 535.92 23.1147 535.024 22.752C534.149 22.368 533.456 21.8134 532.944 21.088C532.432 20.3627 532.176 19.488 532.176 18.464C532.176 17.4187 532.432 16.5547 532.944 15.872C533.456 15.1894 534.149 14.6774 535.024 14.336C535.898 13.9947 536.869 13.824 537.936 13.824H543.632V12.576C543.632 11.3174 543.269 10.336 542.544 9.63202C541.818 8.92802 540.762 8.57602 539.376 8.57602C538.01 8.57602 536.922 8.91736 536.112 9.60002C535.322 10.2614 534.789 11.1574 534.512 12.288L532.656 11.744C532.912 10.8267 533.317 10.0054 533.872 9.28002C534.426 8.53336 535.162 7.94669 536.08 7.52002C536.997 7.07202 538.096 6.84802 539.376 6.84802C541.338 6.84802 542.853 7.36002 543.92 8.38402C545.008 9.40802 545.552 10.8374 545.552 12.672V20.224C545.552 20.864 545.851 21.184 546.448 21.184H547.952V22.848H545.904C545.242 22.848 544.72 22.656 544.336 22.272C543.952 21.8667 543.76 21.3227 543.76 20.64V20.416H543.44C543.162 20.8854 542.8 21.344 542.352 21.792C541.925 22.24 541.36 22.6027 540.656 22.88C539.952 23.1574 539.066 23.296 538 23.296ZM538.128 21.568C539.77 21.568 541.093 21.0774 542.096 20.096C543.12 19.0934 543.632 17.6854 543.632 15.872V15.488H537.968C536.858 15.488 535.93 15.7334 535.184 16.224C534.458 16.6934 534.096 17.4294 534.096 18.432C534.096 19.4347 534.469 20.2134 535.216 20.768C535.984 21.3014 536.954 21.568 538.128 21.568ZM549.687 22.848V7.29602H551.543V10.176H551.927C552.311 9.34402 552.94 8.60802 553.815 7.96802C554.69 7.30669 555.959 6.97602 557.623 6.97602C558.754 6.97602 559.788 7.21069 560.727 7.68002C561.666 8.14935 562.412 8.86402 562.967 9.82402C563.543 10.7627 563.831 11.9467 563.831 13.376V22.848H561.911V13.504C561.911 11.7974 561.484 10.5707 560.631 9.82402C559.778 9.07736 558.636 8.70402 557.207 8.70402C555.607 8.70402 554.274 9.23735 553.207 10.304C552.14 11.3494 551.607 12.9387 551.607 15.072V22.848H549.687ZM567.361 22.848V0.448021H569.281V13.952H569.665L577.633 7.29602H580.449L571.233 14.88L580.705 22.848H577.921L569.665 15.84H569.281V22.848H567.361ZM49.7292 61.296C48.6412 61.296 47.6492 61.1147 46.7532 60.752C45.8785 60.368 45.1852 59.8134 44.6732 59.088C44.1612 58.3627 43.9052 57.488 43.9052 56.464C43.9052 55.4187 44.1612 54.5547 44.6732 53.872C45.1852 53.1894 45.8785 52.6774 46.7532 52.336C47.6279 51.9947 48.5985 51.824 49.6652 51.824H55.3612V50.576C55.3612 49.3174 54.9985 48.336 54.2732 47.632C53.5479 46.928 52.4919 46.576 51.1052 46.576C49.7399 46.576 48.6519 46.9174 47.8412 47.6C47.0519 48.2614 46.5185 49.1574 46.2412 50.288L44.3852 49.744C44.6412 48.8267 45.0465 48.0054 45.6012 47.28C46.1559 46.5334 46.8919 45.9467 47.8092 45.52C48.7265 45.072 49.8252 44.848 51.1052 44.848C53.0679 44.848 54.5825 45.36 55.6492 46.384C56.7372 47.408 57.2812 48.8374 57.2812 50.672V58.224C57.2812 58.864 57.5799 59.184 58.1772 59.184H59.6812V60.848H57.6332C56.9719 60.848 56.4492 60.656 56.0652 60.272C55.6812 59.8667 55.4892 59.3227 55.4892 58.64V58.416H55.1692C54.8919 58.8854 54.5292 59.344 54.0812 59.792C53.6545 60.24 53.0892 60.6027 52.3852 60.88C51.6812 61.1574 50.7959 61.296 49.7292 61.296ZM49.8572 59.568C51.4999 59.568 52.8225 59.0774 53.8252 58.096C54.8492 57.0934 55.3612 55.6854 55.3612 53.872V53.488H49.6972C48.5879 53.488 47.6599 53.7334 46.9132 54.224C46.1879 54.6934 45.8252 55.4294 45.8252 56.432C45.8252 57.4347 46.1985 58.2134 46.9452 58.768C47.7132 59.3014 48.6839 59.568 49.8572 59.568ZM68.0515 61.296C66.5368 61.296 65.1821 60.976 63.9875 60.336C62.8141 59.6747 61.8861 58.736 61.2035 57.52C60.5208 56.304 60.1795 54.8747 60.1795 53.232V52.912C60.1795 51.248 60.5208 49.8187 61.2035 48.624C61.8861 47.408 62.8141 46.48 63.9875 45.84C65.1821 45.1787 66.5368 44.848 68.0515 44.848C69.5448 44.848 70.8035 45.136 71.8275 45.712C72.8728 46.2667 73.6835 47.0027 74.2595 47.92C74.8568 48.816 75.2301 49.7654 75.3795 50.768L73.4915 51.152C73.3848 50.32 73.1181 49.5627 72.6915 48.88C72.2648 48.176 71.6675 47.6214 70.8995 47.216C70.1315 46.7894 69.1821 46.576 68.0515 46.576C66.9208 46.576 65.9075 46.8427 65.0115 47.376C64.1155 47.888 63.4008 48.624 62.8675 49.584C62.3555 50.5227 62.0995 51.6427 62.0995 52.944V53.2C62.0995 54.5014 62.3555 55.632 62.8675 56.592C63.4008 57.5307 64.1155 58.2667 65.0115 58.8C65.9075 59.312 66.9208 59.568 68.0515 59.568C69.7581 59.568 71.0595 59.1307 71.9555 58.256C72.8515 57.36 73.4061 56.272 73.6195 54.992L75.5075 55.376C75.3155 56.3787 74.9101 57.3387 74.2915 58.256C73.6941 59.152 72.8728 59.888 71.8275 60.464C70.8035 61.0187 69.5448 61.296 68.0515 61.296ZM85.4127 61.296C83.898 61.296 82.5434 60.976 81.3487 60.336C80.1754 59.6747 79.2474 58.736 78.5647 57.52C77.882 56.304 77.5407 54.8747 77.5407 53.232V52.912C77.5407 51.248 77.882 49.8187 78.5647 48.624C79.2474 47.408 80.1754 46.48 81.3487 45.84C82.5434 45.1787 83.898 44.848 85.4127 44.848C86.906 44.848 88.1647 45.136 89.1887 45.712C90.234 46.2667 91.0447 47.0027 91.6207 47.92C92.218 48.816 92.5914 49.7654 92.7407 50.768L90.8527 51.152C90.746 50.32 90.4794 49.5627 90.0527 48.88C89.626 48.176 89.0287 47.6214 88.2607 47.216C87.4927 46.7894 86.5434 46.576 85.4127 46.576C84.282 46.576 83.2687 46.8427 82.3727 47.376C81.4767 47.888 80.762 48.624 80.2287 49.584C79.7167 50.5227 79.4607 51.6427 79.4607 52.944V53.2C79.4607 54.5014 79.7167 55.632 80.2287 56.592C80.762 57.5307 81.4767 58.2667 82.3727 58.8C83.2687 59.312 84.282 59.568 85.4127 59.568C87.1194 59.568 88.4207 59.1307 89.3167 58.256C90.2127 57.36 90.7674 56.272 90.9807 54.992L92.8687 55.376C92.6767 56.3787 92.2714 57.3387 91.6527 58.256C91.0554 59.152 90.234 59.888 89.1887 60.464C88.1647 61.0187 86.906 61.296 85.4127 61.296ZM102.774 61.296C101.195 61.296 99.8086 60.9654 98.614 60.304C97.4406 59.6214 96.5233 58.6827 95.862 57.488C95.222 56.272 94.902 54.864 94.902 53.264V52.88C94.902 51.28 95.222 49.8827 95.862 48.688C96.5233 47.472 97.4406 46.5334 98.614 45.872C99.8086 45.1894 101.195 44.848 102.774 44.848C104.353 44.848 105.729 45.1894 106.902 45.872C108.097 46.5334 109.014 47.472 109.654 48.688C110.315 49.8827 110.646 51.28 110.646 52.88V53.264C110.646 54.864 110.315 56.272 109.654 57.488C109.014 58.6827 108.097 59.6214 106.902 60.304C105.729 60.9654 104.353 61.296 102.774 61.296ZM102.774 59.568C104.609 59.568 106.059 58.992 107.126 57.84C108.193 56.6667 108.726 55.12 108.726 53.2V52.944C108.726 51.024 108.193 49.488 107.126 48.336C106.059 47.1627 104.609 46.576 102.774 46.576C100.961 46.576 99.51 47.1627 98.422 48.336C97.3553 49.488 96.822 51.024 96.822 52.944V53.2C96.822 55.12 97.3553 56.6667 98.422 57.84C99.51 58.992 100.961 59.568 102.774 59.568ZM119.578 61.168C118.468 61.168 117.434 60.9334 116.474 60.464C115.535 59.9947 114.778 59.2907 114.202 58.352C113.647 57.392 113.37 56.1974 113.37 54.768V45.296H115.29V54.64C115.29 56.3254 115.716 57.552 116.57 58.32C117.423 59.0667 118.564 59.44 119.994 59.44C121.594 59.44 122.927 58.9174 123.994 57.872C125.06 56.8054 125.594 55.2054 125.594 53.072V45.296H127.514V60.848H125.658V57.968H125.274C124.89 58.8 124.26 59.5467 123.386 60.208C122.511 60.848 121.242 61.168 119.578 61.168ZM131.236 60.848V45.296H133.092V48.176H133.476C133.86 47.344 134.49 46.608 135.364 45.968C136.239 45.3067 137.508 44.976 139.172 44.976C140.303 44.976 141.338 45.2107 142.276 45.68C143.215 46.1494 143.962 46.864 144.516 47.824C145.092 48.7627 145.38 49.9467 145.38 51.376V60.848H143.46V51.504C143.46 49.7974 143.034 48.5707 142.18 47.824C141.327 47.0774 140.186 46.704 138.756 46.704C137.156 46.704 135.823 47.2374 134.756 48.304C133.69 49.3494 133.156 50.9387 133.156 53.072V60.848H131.236ZM154.104 60.848C153.272 60.848 152.643 60.6347 152.216 60.208C151.811 59.7814 151.608 59.184 151.608 58.416V47.024H146.616V45.296H151.608V39.472H153.528V45.296H158.968V47.024H153.528V58.16C153.528 58.8 153.848 59.12 154.488 59.12H158.136V60.848H154.104ZM160.886 64.56V63.216H161.654C162.336 63.216 162.678 62.8747 162.678 62.192V61.168H162.262C161.75 61.168 161.312 61.008 160.95 60.688C160.608 60.3467 160.438 59.92 160.438 59.408C160.438 58.896 160.608 58.48 160.95 58.16C161.312 57.8187 161.75 57.648 162.262 57.648C162.774 57.648 163.2 57.8294 163.542 58.192C163.904 58.5334 164.086 58.96 164.086 59.472V62.128C164.086 63.7494 163.286 64.56 161.686 64.56H160.886ZM178.326 61.296C176.449 61.296 174.838 60.848 173.494 59.952C172.171 59.056 171.361 57.5734 171.062 55.504L172.95 55.152C173.121 56.2827 173.462 57.1787 173.974 57.84C174.507 58.48 175.147 58.9387 175.894 59.216C176.662 59.4934 177.473 59.632 178.326 59.632C179.606 59.632 180.63 59.376 181.398 58.864C182.187 58.3307 182.582 57.6054 182.582 56.688C182.582 55.7494 182.209 55.0987 181.462 54.736C180.737 54.3734 179.766 54.0854 178.55 53.872L177.078 53.616C176.097 53.4454 175.211 53.1894 174.422 52.848C173.633 52.4854 173.003 52.0054 172.534 51.408C172.086 50.8107 171.862 50.064 171.862 49.168C171.862 47.824 172.385 46.768 173.43 46C174.497 45.232 175.905 44.848 177.654 44.848C179.425 44.848 180.843 45.2534 181.91 46.064C182.998 46.8534 183.681 48.0054 183.958 49.52L182.166 49.904C181.953 48.6667 181.441 47.792 180.63 47.28C179.841 46.768 178.849 46.512 177.654 46.512C176.481 46.512 175.542 46.736 174.838 47.184C174.134 47.632 173.782 48.2934 173.782 49.168C173.782 50.0214 174.102 50.6507 174.742 51.056C175.382 51.44 176.257 51.728 177.366 51.92L178.838 52.176C179.905 52.3467 180.865 52.6027 181.718 52.944C182.571 53.264 183.243 53.7227 183.734 54.32C184.246 54.9174 184.502 55.7067 184.502 56.688C184.502 58.16 183.947 59.3014 182.838 60.112C181.729 60.9014 180.225 61.296 178.326 61.296ZM191.779 61.296C190.691 61.296 189.699 61.1147 188.803 60.752C187.929 60.368 187.235 59.8134 186.723 59.088C186.211 58.3627 185.955 57.488 185.955 56.464C185.955 55.4187 186.211 54.5547 186.723 53.872C187.235 53.1894 187.929 52.6774 188.803 52.336C189.678 51.9947 190.649 51.824 191.715 51.824H197.411V50.576C197.411 49.3174 197.049 48.336 196.323 47.632C195.598 46.928 194.542 46.576 193.155 46.576C191.79 46.576 190.702 46.9174 189.891 47.6C189.102 48.2614 188.569 49.1574 188.291 50.288L186.435 49.744C186.691 48.8267 187.097 48.0054 187.651 47.28C188.206 46.5334 188.942 45.9467 189.859 45.52C190.777 45.072 191.875 44.848 193.155 44.848C195.118 44.848 196.633 45.36 197.699 46.384C198.787 47.408 199.331 48.8374 199.331 50.672V58.224C199.331 58.864 199.63 59.184 200.227 59.184H201.731V60.848H199.683C199.022 60.848 198.499 60.656 198.115 60.272C197.731 59.8667 197.539 59.3227 197.539 58.64V58.416H197.219C196.942 58.8854 196.579 59.344 196.131 59.792C195.705 60.24 195.139 60.6027 194.435 60.88C193.731 61.1574 192.846 61.296 191.779 61.296ZM191.907 59.568C193.55 59.568 194.873 59.0774 195.875 58.096C196.899 57.0934 197.411 55.6854 197.411 53.872V53.488H191.747C190.638 53.488 189.71 53.7334 188.963 54.224C188.238 54.6934 187.875 55.4294 187.875 56.432C187.875 57.4347 188.249 58.2134 188.995 58.768C189.763 59.3014 190.734 59.568 191.907 59.568ZM206.846 60.848L201.022 45.296H203.07L208.19 59.376H208.574L213.694 45.296H215.742L209.918 60.848H206.846ZM224.277 61.296C222.677 61.296 221.279 60.9654 220.085 60.304C218.911 59.6214 217.994 58.672 217.333 57.456C216.671 56.24 216.341 54.8427 216.341 53.264V52.88C216.341 51.28 216.671 49.8827 217.333 48.688C217.994 47.472 218.901 46.5334 220.053 45.872C221.226 45.1894 222.559 44.848 224.053 44.848C225.503 44.848 226.783 45.1574 227.893 45.776C229.023 46.3734 229.909 47.248 230.549 48.4C231.189 49.5307 231.509 50.8854 231.509 52.464V53.488H218.261C218.325 55.4294 218.911 56.9334 220.021 58C221.151 59.0454 222.57 59.568 224.277 59.568C225.727 59.568 226.847 59.2374 227.637 58.576C228.447 57.9147 229.066 57.104 229.493 56.144L231.221 56.912C230.901 57.616 230.453 58.3094 229.877 58.992C229.322 59.6534 228.597 60.208 227.701 60.656C226.805 61.0827 225.663 61.296 224.277 61.296ZM218.293 51.824H229.557C229.471 50.1387 228.927 48.848 227.925 47.952C226.922 47.0347 225.631 46.576 224.053 46.576C222.495 46.576 221.205 47.0347 220.181 47.952C219.157 48.848 218.527 50.1387 218.293 51.824ZM245.412 61.296C244.324 61.296 243.332 61.1147 242.436 60.752C241.561 60.368 240.868 59.8134 240.356 59.088C239.844 58.3627 239.588 57.488 239.588 56.464C239.588 55.4187 239.844 54.5547 240.356 53.872C240.868 53.1894 241.561 52.6774 242.436 52.336C243.31 51.9947 244.281 51.824 245.348 51.824H251.044V50.576C251.044 49.3174 250.681 48.336 249.956 47.632C249.23 46.928 248.174 46.576 246.788 46.576C245.422 46.576 244.334 46.9174 243.524 47.6C242.734 48.2614 242.201 49.1574 241.924 50.288L240.068 49.744C240.324 48.8267 240.729 48.0054 241.284 47.28C241.838 46.5334 242.574 45.9467 243.492 45.52C244.409 45.072 245.508 44.848 246.788 44.848C248.75 44.848 250.265 45.36 251.332 46.384C252.42 47.408 252.964 48.8374 252.964 50.672V58.224C252.964 58.864 253.262 59.184 253.86 59.184H255.364V60.848H253.316C252.654 60.848 252.132 60.656 251.748 60.272C251.364 59.8667 251.172 59.3227 251.172 58.64V58.416H250.852C250.574 58.8854 250.212 59.344 249.764 59.792C249.337 60.24 248.772 60.6027 248.068 60.88C247.364 61.1574 246.478 61.296 245.412 61.296ZM245.54 59.568C247.182 59.568 248.505 59.0774 249.508 58.096C250.532 57.0934 251.044 55.6854 251.044 53.872V53.488H245.38C244.27 53.488 243.342 53.7334 242.596 54.224C241.87 54.6934 241.508 55.4294 241.508 56.432C241.508 57.4347 241.881 58.2134 242.628 58.768C243.396 59.3014 244.366 59.568 245.54 59.568ZM257.099 60.848V45.296H258.955V48.176H259.339C259.723 47.344 260.352 46.608 261.227 45.968C262.101 45.3067 263.371 44.976 265.035 44.976C266.165 44.976 267.2 45.2107 268.139 45.68C269.077 46.1494 269.824 46.864 270.379 47.824C270.955 48.7627 271.243 49.9467 271.243 51.376V60.848H269.323V51.504C269.323 49.7974 268.896 48.5707 268.043 47.824C267.189 47.0774 266.048 46.704 264.619 46.704C263.019 46.704 261.685 47.2374 260.619 48.304C259.552 49.3494 259.019 50.9387 259.019 53.072V60.848H257.099ZM281.492 61.296C280.106 61.296 278.847 60.976 277.716 60.336C276.586 59.6747 275.679 58.7467 274.996 57.552C274.335 56.336 274.004 54.9067 274.004 53.264V52.88C274.004 51.2374 274.335 49.8187 274.996 48.624C275.658 47.408 276.554 46.48 277.684 45.84C278.836 45.1787 280.106 44.848 281.492 44.848C282.644 44.848 283.615 45.008 284.404 45.328C285.194 45.6267 285.834 46.0214 286.324 46.512C286.836 46.9814 287.231 47.4827 287.508 48.016H287.892V38.448H289.812V60.848H287.956V58H287.572C287.124 58.8534 286.42 59.6214 285.46 60.304C284.522 60.9654 283.199 61.296 281.492 61.296ZM281.94 59.568C283.711 59.568 285.14 59.0027 286.228 57.872C287.338 56.7414 287.892 55.184 287.892 53.2V52.944C287.892 50.96 287.338 49.4027 286.228 48.272C285.14 47.1414 283.711 46.576 281.94 46.576C280.191 46.576 278.762 47.1414 277.652 48.272C276.543 49.4027 275.988 50.96 275.988 52.944V53.2C275.988 55.184 276.543 56.7414 277.652 57.872C278.762 59.0027 280.191 59.568 281.94 59.568ZM299.87 67.248V45.296H301.726V48.144H302.11C302.558 47.2907 303.251 46.5334 304.19 45.872C305.15 45.1894 306.483 44.848 308.19 44.848C309.577 44.848 310.835 45.1787 311.966 45.84C313.097 46.48 313.993 47.3974 314.654 48.592C315.337 49.7867 315.678 51.216 315.678 52.88V53.264C315.678 54.9067 315.347 56.336 314.686 57.552C314.025 58.7467 313.129 59.6747 311.998 60.336C310.867 60.976 309.598 61.296 308.19 61.296C307.059 61.296 306.089 61.1467 305.278 60.848C304.489 60.528 303.838 60.1227 303.326 59.632C302.835 59.1414 302.451 58.64 302.174 58.128H301.79V67.248H299.87ZM307.742 59.568C309.513 59.568 310.942 59.0027 312.03 57.872C313.139 56.7414 313.694 55.184 313.694 53.2V52.944C313.694 50.96 313.139 49.4027 312.03 48.272C310.942 47.1414 309.513 46.576 307.742 46.576C305.993 46.576 304.563 47.1414 303.454 48.272C302.345 49.4027 301.79 50.96 301.79 52.944V53.2C301.79 55.184 302.345 56.7414 303.454 57.872C304.563 59.0027 305.993 59.568 307.742 59.568ZM323.405 61.296C322.317 61.296 321.325 61.1147 320.429 60.752C319.555 60.368 318.861 59.8134 318.349 59.088C317.837 58.3627 317.581 57.488 317.581 56.464C317.581 55.4187 317.837 54.5547 318.349 53.872C318.861 53.1894 319.555 52.6774 320.429 52.336C321.304 51.9947 322.275 51.824 323.341 51.824H329.037V50.576C329.037 49.3174 328.675 48.336 327.949 47.632C327.224 46.928 326.168 46.576 324.781 46.576C323.416 46.576 322.328 46.9174 321.517 47.6C320.728 48.2614 320.195 49.1574 319.917 50.288L318.061 49.744C318.317 48.8267 318.723 48.0054 319.277 47.28C319.832 46.5334 320.568 45.9467 321.485 45.52C322.403 45.072 323.501 44.848 324.781 44.848C326.744 44.848 328.259 45.36 329.325 46.384C330.413 47.408 330.957 48.8374 330.957 50.672V58.224C330.957 58.864 331.256 59.184 331.853 59.184H333.357V60.848H331.309C330.648 60.848 330.125 60.656 329.741 60.272C329.357 59.8667 329.165 59.3227 329.165 58.64V58.416H328.845C328.568 58.8854 328.205 59.344 327.757 59.792C327.331 60.24 326.765 60.6027 326.061 60.88C325.357 61.1574 324.472 61.296 323.405 61.296ZM323.533 59.568C325.176 59.568 326.499 59.0774 327.501 58.096C328.525 57.0934 329.037 55.6854 329.037 53.872V53.488H323.373C322.264 53.488 321.336 53.7334 320.589 54.224C319.864 54.6934 319.501 55.4294 319.501 56.432C319.501 57.4347 319.875 58.2134 320.621 58.768C321.389 59.3014 322.36 59.568 323.533 59.568ZM336.669 67.248V65.52H345.757C346.397 65.52 346.717 65.2 346.717 64.56V58.16H346.333C346.077 58.672 345.715 59.1627 345.245 59.632C344.797 60.08 344.2 60.4534 343.453 60.752C342.728 61.0294 341.811 61.168 340.701 61.168C339.592 61.168 338.557 60.9334 337.597 60.464C336.659 59.9947 335.901 59.2907 335.325 58.352C334.771 57.4134 334.493 56.2294 334.493 54.8V45.296H336.413V54.672C336.413 56.3574 336.84 57.5734 337.693 58.32C338.547 59.0667 339.688 59.44 341.117 59.44C342.717 59.44 344.051 58.9174 345.117 57.872C346.184 56.8267 346.717 55.2374 346.717 53.104V45.296H348.637V64.816C348.637 65.584 348.424 66.1814 347.997 66.608C347.592 67.0347 346.973 67.248 346.141 67.248H336.669ZM367.01 61.296C365.303 61.296 363.97 60.9654 363.01 60.304C362.071 59.6214 361.378 58.8534 360.93 58H360.546V60.848H358.69V38.448H360.61V48.016H360.994C361.271 47.4827 361.655 46.9814 362.146 46.512C362.658 46.0214 363.309 45.6267 364.098 45.328C364.909 45.008 365.879 44.848 367.01 44.848C368.418 44.848 369.687 45.1787 370.818 45.84C371.949 46.48 372.845 47.408 373.506 48.624C374.167 49.8187 374.498 51.2374 374.498 52.88V53.264C374.498 54.9067 374.157 56.336 373.474 57.552C372.813 58.7467 371.917 59.6747 370.786 60.336C369.655 60.976 368.397 61.296 367.01 61.296ZM366.562 59.568C368.333 59.568 369.762 59.0027 370.85 57.872C371.959 56.7414 372.514 55.184 372.514 53.2V52.944C372.514 50.96 371.959 49.4027 370.85 48.272C369.762 47.1414 368.333 46.576 366.562 46.576C364.813 46.576 363.383 47.1414 362.274 48.272C361.165 49.4027 360.61 50.96 360.61 52.944V53.2C360.61 55.184 361.165 56.7414 362.274 57.872C363.383 59.0027 364.813 59.568 366.562 59.568ZM377.457 60.848V45.296H379.377V60.848H377.457ZM378.417 42.608C377.948 42.608 377.553 42.448 377.233 42.128C376.913 41.808 376.753 41.4134 376.753 40.944C376.753 40.4534 376.913 40.0587 377.233 39.76C377.553 39.44 377.948 39.28 378.417 39.28C378.908 39.28 379.303 39.44 379.601 39.76C379.921 40.0587 380.081 40.4534 380.081 40.944C380.081 41.4134 379.921 41.808 379.601 42.128C379.303 42.448 378.908 42.608 378.417 42.608ZM383.1 60.848V38.448H385.02V60.848H383.1ZM388.742 60.848V38.448H390.662V60.848H388.742ZM400.561 61.296C398.684 61.296 397.073 60.848 395.729 59.952C394.406 59.056 393.596 57.5734 393.297 55.504L395.185 55.152C395.356 56.2827 395.697 57.1787 396.209 57.84C396.742 58.48 397.382 58.9387 398.129 59.216C398.897 59.4934 399.708 59.632 400.561 59.632C401.841 59.632 402.865 59.376 403.633 58.864C404.422 58.3307 404.817 57.6054 404.817 56.688C404.817 55.7494 404.444 55.0987 403.697 54.736C402.972 54.3734 402.001 54.0854 400.785 53.872L399.313 53.616C398.332 53.4454 397.446 53.1894 396.657 52.848C395.868 52.4854 395.238 52.0054 394.769 51.408C394.321 50.8107 394.097 50.064 394.097 49.168C394.097 47.824 394.62 46.768 395.665 46C396.732 45.232 398.14 44.848 399.889 44.848C401.66 44.848 403.078 45.2534 404.145 46.064C405.233 46.8534 405.916 48.0054 406.193 49.52L404.401 49.904C404.188 48.6667 403.676 47.792 402.865 47.28C402.076 46.768 401.084 46.512 399.889 46.512C398.716 46.512 397.777 46.736 397.073 47.184C396.369 47.632 396.017 48.2934 396.017 49.168C396.017 50.0214 396.337 50.6507 396.977 51.056C397.617 51.44 398.492 51.728 399.601 51.92L401.073 52.176C402.14 52.3467 403.1 52.6027 403.953 52.944C404.806 53.264 405.478 53.7227 405.969 54.32C406.481 54.9174 406.737 55.7067 406.737 56.688C406.737 58.16 406.182 59.3014 405.073 60.112C403.964 60.9014 402.46 61.296 400.561 61.296ZM415.701 60.848V45.296H417.621V60.848H415.701ZM416.661 42.608C416.192 42.608 415.797 42.448 415.477 42.128C415.157 41.808 414.997 41.4134 414.997 40.944C414.997 40.4534 415.157 40.0587 415.477 39.76C415.797 39.44 416.192 39.28 416.661 39.28C417.152 39.28 417.547 39.44 417.845 39.76C418.165 40.0587 418.325 40.4534 418.325 40.944C418.325 41.4134 418.165 41.808 417.845 42.128C417.547 42.448 417.152 42.608 416.661 42.608ZM421.344 60.848V45.296H423.2V48.176H423.584C423.968 47.344 424.597 46.608 425.472 45.968C426.346 45.3067 427.616 44.976 429.28 44.976C430.41 44.976 431.445 45.2107 432.384 45.68C433.322 46.1494 434.069 46.864 434.624 47.824C435.2 48.7627 435.488 49.9467 435.488 51.376V60.848H433.568V51.504C433.568 49.7974 433.141 48.5707 432.288 47.824C431.434 47.0774 430.293 46.704 428.864 46.704C427.264 46.704 425.93 47.2374 424.864 48.304C423.797 49.3494 423.264 50.9387 423.264 53.072V60.848H421.344ZM445.193 61.296C443.316 61.296 441.705 60.848 440.361 59.952C439.039 59.056 438.228 57.5734 437.929 55.504L439.817 55.152C439.988 56.2827 440.329 57.1787 440.841 57.84C441.375 58.48 442.015 58.9387 442.761 59.216C443.529 59.4934 444.34 59.632 445.193 59.632C446.473 59.632 447.497 59.376 448.265 58.864C449.055 58.3307 449.449 57.6054 449.449 56.688C449.449 55.7494 449.076 55.0987 448.329 54.736C447.604 54.3734 446.633 54.0854 445.417 53.872L443.945 53.616C442.964 53.4454 442.079 53.1894 441.289 52.848C440.5 52.4854 439.871 52.0054 439.401 51.408C438.953 50.8107 438.729 50.064 438.729 49.168C438.729 47.824 439.252 46.768 440.297 46C441.364 45.232 442.772 44.848 444.521 44.848C446.292 44.848 447.711 45.2534 448.777 46.064C449.865 46.8534 450.548 48.0054 450.825 49.52L449.033 49.904C448.82 48.6667 448.308 47.792 447.497 47.28C446.708 46.768 445.716 46.512 444.521 46.512C443.348 46.512 442.409 46.736 441.705 47.184C441.001 47.632 440.649 48.2934 440.649 49.168C440.649 50.0214 440.969 50.6507 441.609 51.056C442.249 51.44 443.124 51.728 444.233 51.92L445.705 52.176C446.772 52.3467 447.732 52.6027 448.585 52.944C449.439 53.264 450.111 53.7227 450.601 54.32C451.113 54.9174 451.369 55.7067 451.369 56.688C451.369 58.16 450.815 59.3014 449.705 60.112C448.596 60.9014 447.092 61.296 445.193 61.296ZM459.261 60.848C458.429 60.848 457.799 60.6347 457.373 60.208C456.967 59.7814 456.765 59.184 456.765 58.416V47.024H451.773V45.296H456.765V39.472H458.685V45.296H464.125V47.024H458.685V58.16C458.685 58.8 459.005 59.12 459.645 59.12H463.293V60.848H459.261ZM471.133 61.296C470.045 61.296 469.053 61.1147 468.157 60.752C467.282 60.368 466.589 59.8134 466.077 59.088C465.565 58.3627 465.309 57.488 465.309 56.464C465.309 55.4187 465.565 54.5547 466.077 53.872C466.589 53.1894 467.282 52.6774 468.157 52.336C469.032 51.9947 470.002 51.824 471.069 51.824H476.765V50.576C476.765 49.3174 476.402 48.336 475.677 47.632C474.952 46.928 473.896 46.576 472.509 46.576C471.144 46.576 470.056 46.9174 469.245 47.6C468.456 48.2614 467.922 49.1574 467.645 50.288L465.789 49.744C466.045 48.8267 466.45 48.0054 467.005 47.28C467.56 46.5334 468.296 45.9467 469.213 45.52C470.13 45.072 471.229 44.848 472.509 44.848C474.472 44.848 475.986 45.36 477.053 46.384C478.141 47.408 478.685 48.8374 478.685 50.672V58.224C478.685 58.864 478.984 59.184 479.581 59.184H481.085V60.848H479.037C478.376 60.848 477.853 60.656 477.469 60.272C477.085 59.8667 476.893 59.3227 476.893 58.64V58.416H476.573C476.296 58.8854 475.933 59.344 475.485 59.792C475.058 60.24 474.493 60.6027 473.789 60.88C473.085 61.1574 472.2 61.296 471.133 61.296ZM471.261 59.568C472.904 59.568 474.226 59.0774 475.229 58.096C476.253 57.0934 476.765 55.6854 476.765 53.872V53.488H471.101C469.992 53.488 469.064 53.7334 468.317 54.224C467.592 54.6934 467.229 55.4294 467.229 56.432C467.229 57.4347 467.602 58.2134 468.349 58.768C469.117 59.3014 470.088 59.568 471.261 59.568ZM482.82 60.848V45.296H484.676V48.176H485.06C485.444 47.344 486.073 46.608 486.948 45.968C487.823 45.3067 489.092 44.976 490.756 44.976C491.887 44.976 492.921 45.2107 493.86 45.68C494.799 46.1494 495.545 46.864 496.1 47.824C496.676 48.7627 496.964 49.9467 496.964 51.376V60.848H495.044V51.504C495.044 49.7974 494.617 48.5707 493.764 47.824C492.911 47.0774 491.769 46.704 490.34 46.704C488.74 46.704 487.407 47.2374 486.34 48.304C485.273 49.3494 484.74 50.9387 484.74 53.072V60.848H482.82ZM505.688 60.848C504.856 60.848 504.227 60.6347 503.8 60.208C503.395 59.7814 503.192 59.184 503.192 58.416V47.024H498.2V45.296H503.192V39.472H505.112V45.296H510.552V47.024H505.112V58.16C505.112 58.8 505.432 59.12 506.072 59.12H509.72V60.848H505.688ZM512.917 60.848V38.448H514.837V60.848H512.917ZM520.512 67.248V65.52H529.6C530.24 65.52 530.56 65.2 530.56 64.56V58.16H530.176C529.92 58.672 529.557 59.1627 529.088 59.632C528.64 60.08 528.043 60.4534 527.296 60.752C526.571 61.0294 525.653 61.168 524.544 61.168C523.435 61.168 522.4 60.9334 521.44 60.464C520.501 59.9947 519.744 59.2907 519.168 58.352C518.613 57.4134 518.336 56.2294 518.336 54.8V45.296H520.256V54.672C520.256 56.3574 520.683 57.5734 521.536 58.32C522.389 59.0667 523.531 59.44 524.96 59.44C526.56 59.44 527.893 58.9174 528.96 57.872C530.027 56.8267 530.56 55.2374 530.56 53.104V45.296H532.48V64.816C532.48 65.584 532.267 66.1814 531.84 66.608C531.435 67.0347 530.816 67.248 529.984 67.248H520.512Z" fill="white"/>
</svg>
