<svg xmlns="http://www.w3.org/2000/svg" viewBox="0 0 20 20" overflow="visible" id="svg-294924323_790"><g><path d="M 19.892 10.894 C 19.468 12.625 17.212 13.868 12.7 16.354 C 7.792 19.059 5.338 20.411 3.351 19.89 C 2.678 19.714 2.058 19.403 1.537 18.982 C 0 17.74 0 15.16 0 10 C 0 4.84 0 2.26 1.537 1.018 C 2.058 0.597 2.678 0.287 3.351 0.11 C 5.338 -0.411 7.792 0.941 12.7 3.646 C 17.212 6.132 19.468 7.375 19.892 9.106 C 20.036 9.695 20.036 10.305 19.892 10.894 Z" fill="transparent" stroke-width="2" stroke="rgb(255,255,255)" stroke-linejoin="round" stroke-dasharray=""></path><path d="M 1.818 19.2 L 16.364 5.772 M 1.818 1.019 L 16.364 14.447" fill="transparent" stroke-width="2" stroke="rgb(255,255,255)" stroke-linejoin="round" stroke-dasharray=""></path></g></svg>